<?xml version="1.0" encoding="UTF-8" standalone="no"?>
<!-- Generator: Adobe Illustrator 19.0.0, SVG Export Plug-In . SVG Version: 6.00 Build 0)  -->

<svg
   xmlns:dc="http://purl.org/dc/elements/1.1/"
   xmlns:cc="http://creativecommons.org/ns#"
   xmlns:rdf="http://www.w3.org/1999/02/22-rdf-syntax-ns#"
   xmlns:svg="http://www.w3.org/2000/svg"
   xmlns="http://www.w3.org/2000/svg"
   xmlns:sodipodi="http://sodipodi.sourceforge.net/DTD/sodipodi-0.dtd"
   xmlns:inkscape="http://www.inkscape.org/namespaces/inkscape"
   version="1.1"
   id="Capa_1"
   x="0px"
   y="0px"
   viewBox="0 0 60 60"
   xml:space="preserve"
   sodipodi:docname="cloud01.svg"
   inkscape:version="0.92.2 (5c3e80d, 2017-08-06)"
   width="15.875mm"
   height="15.875mm"><metadata
     id="metadata23909"><rdf:RDF><cc:Work
         rdf:about=""><dc:format>image/svg+xml</dc:format><dc:type
           rdf:resource="http://purl.org/dc/dcmitype/StillImage" /><dc:title></dc:title></cc:Work></rdf:RDF></metadata><defs
     id="defs23907" /><sodipodi:namedview
     pagecolor="#ffffff"
     bordercolor="#666666"
     borderopacity="1"
     objecttolerance="10"
     gridtolerance="10"
     guidetolerance="10"
     inkscape:pageopacity="0"
     inkscape:pageshadow="2"
     inkscape:window-width="1920"
     inkscape:window-height="1003"
     id="namedview23905"
     showgrid="false"
     inkscape:zoom="6.2088"
     inkscape:cx="9.2054"
     inkscape:cy="4.209"
     inkscape:window-x="-9"
     inkscape:window-y="-9"
     inkscape:window-maximized="1"
     inkscape:current-layer="Capa_1"
     inkscape:document-units="mm"
     units="mm" /><path
     style="fill:none;stroke:#000000;stroke-width:1.13386;stroke-miterlimit:4;stroke-dasharray:none;stroke-opacity:1;stroke-linejoin:round"
     d="m 50.468,79.313 c -0.529,-9 -7.948,-16.194 -16.891,-16.194 -5.43,0 -10.688,2.663 -13.946,7.008 -0.07,-0.04 -0.154,-0.07 -0.23,-0.102 -0.198,-0.1 -0.399,-0.187 -0.604,-0.269 -0.114,-0.05 -0.228,-0.09 -0.343,-0.126 -0.203,-0.07 -0.409,-0.134 -0.619,-0.191 -0.115,-0.03 -0.229,-0.06 -0.345,-0.09 -0.225,-0.05 -0.455,-0.09 -0.687,-0.125 -0.101,-0.02 -0.2,-0.04 -0.302,-0.05 -0.332,-0.03 -0.668,-0.06 -1.009,-0.06 -4.963,0 -8.9998,4.037 -8.9998,9 0,0.127 0.01,0.252 0.016,0.377 v 0 c -4.159,2.272 -7.01603,7.022 -7.01603,11.777 0,7.083 5.76203,12.847 12.84483,12.847 h 24.508 c 0.104,0 0.207,0 0.311,-0 h 0.06 0.134 c 0.102,0 0.204,0 0.309,0 h 9.803 c 6.634,0 12.03,-5.397 12.03,-12.029 0,-5.489 -3.827,-10.412 -9.024,-11.778 z"
     id="path24456"
     inkscape:connector-curvature="0" /><path
     style="fill:none;stroke:#000000;stroke-width:1.13386;stroke-miterlimit:4;stroke-dasharray:none;stroke-opacity:1"
     d="M 49.123,27.991 C 53.779,28.872 58,33.161 58,37.972 58,43.501 53.501,48 47.972,48 H 38.169 37.995 L 37.724,47.99 37.526,48 H 37.353 12.845 C 6.865,48 2,43.135 2,37.154 2,33 4.705,28.688 8.433,26.901 L 9,26.63 V 26 c 0,-0.127 0.01,-0.256 0.015,-0.386 l 0.01,-0.16 -0.012,-0.21 C 9.006,25.163 9,25.082 9,25 c 0,-3.859 3.141,-7 7,-7 0.309,0 0.614,0.03 0.917,0.07 0.08,0.01 0.156,0.02 0.233,0.04 0.267,0.04 0.53,0.102 0.789,0.177 0.04,0.01 0.07,0.02 0.106,0.03 0.285,0.09 0.563,0.197 0.835,0.321 0.07,0.03 0.14,0.07 0.21,0.101 0.24,0.119 0.475,0.249 0.702,0.396 0.266,0.171 0.519,0.359 0.758,0.563 L 21.8,18.129 C 24.667,14.379 29.388,12 34.085,12 c 7.745,0 14.177,6.135 14.848,13.888 z"
     id="path23872"
     inkscape:connector-curvature="0"
     sodipodi:nodetypes="csscccccssccscccsscccccccccscc" /><g
     id="g23874" /><g
     id="g23876" /><g
     id="g23878" /><g
     id="g23880" /><g
     id="g23882" /><g
     id="g23884" /><g
     id="g23886" /><g
     id="g23888" /><g
     id="g23890" /><g
     id="g23892" /><g
     id="g23894" /><g
     id="g23896" /><g
     id="g23898" /><g
     id="g23900" /><g
     id="g23902" /></svg>