<?xml version="1.0" encoding="UTF-8" standalone="no"?>
<!-- Generator: Adobe Illustrator 19.0.0, SVG Export Plug-In . SVG Version: 6.00 Build 0)  -->

<svg
   xmlns:dc="http://purl.org/dc/elements/1.1/"
   xmlns:cc="http://creativecommons.org/ns#"
   xmlns:rdf="http://www.w3.org/1999/02/22-rdf-syntax-ns#"
   xmlns:svg="http://www.w3.org/2000/svg"
   xmlns="http://www.w3.org/2000/svg"
   xmlns:sodipodi="http://sodipodi.sourceforge.net/DTD/sodipodi-0.dtd"
   xmlns:inkscape="http://www.inkscape.org/namespaces/inkscape"
   version="1.1"
   id="Capa_1"
   x="0px"
   y="0px"
   viewBox="0 0 55 55"
   xml:space="preserve"
   sodipodi:docname="database01.svg"
   inkscape:version="0.92.2 (5c3e80d, 2017-08-06)"
   width="14.552mm"
   height="14.552mm"><metadata
     id="metadata28053"><rdf:RDF><cc:Work
         rdf:about=""><dc:format>image/svg+xml</dc:format><dc:type
           rdf:resource="http://purl.org/dc/dcmitype/StillImage" /><dc:title></dc:title></cc:Work></rdf:RDF></metadata><defs
     id="defs28051" /><sodipodi:namedview
     pagecolor="#ffffff"
     bordercolor="#666666"
     borderopacity="1"
     objecttolerance="10"
     gridtolerance="10"
     guidetolerance="10"
     inkscape:pageopacity="0"
     inkscape:pageshadow="2"
     inkscape:window-width="1920"
     inkscape:window-height="1003"
     id="namedview28049"
     showgrid="false"
     inkscape:zoom="10.203"
     inkscape:cx="30.423"
     inkscape:cy="29.619"
     inkscape:window-x="-9"
     inkscape:window-y="-9"
     inkscape:window-maximized="1"
     inkscape:current-layer="Capa_1"
     inkscape:document-units="mm"
     units="mm"
     inkscape:snap-bbox="true" /><g
     id="g29214"><path
       inkscape:connector-curvature="0"
       id="path29153"
       d="M 27.499,-5.0068e-6 C 42.234,-5.0068e-6 52.5,4.7202 52.5,8.9579 52.5,13.193 42.234,17.916 27.499,17.916 12.766,17.916 2.5,13.193 2.5,8.9579 2.5,4.7202 12.766,-5.0068e-6 27.499,-5.0068e-6 Z"
       style="fill:none;stroke:#000000;stroke-width:1.13385;stroke-miterlimit:4;stroke-dasharray:none;stroke-opacity:1" /><path
       id="path29181"
       d="m 52.5,33.681 c 0,4.235 -10.266,8.958 -25.001,8.958 C 12.766,42.639 2.5,37.916 2.5,33.681"
       style="fill:none;stroke:#000000;stroke-width:1.13385;stroke-miterlimit:4;stroke-dasharray:none;stroke-opacity:1"
       inkscape:connector-curvature="0" /><path
       id="path29187"
       d="m 52.5,21.319 c 0,4.235 -10.266,8.958 -25.001,8.958 C 12.766,30.277 2.5,25.554 2.5,21.319"
       style="fill:none;stroke:#000000;stroke-width:1.13385;stroke-miterlimit:4;stroke-dasharray:none;stroke-opacity:1"
       inkscape:connector-curvature="0" /><path
       sodipodi:nodetypes="ccscc"
       inkscape:connector-curvature="0"
       d="M 2.5,8.958 V 46.042 C 2.5,50.277 12.766,55 27.499,55 42.234,55 52.5,50.277 52.5,46.042 V 8.958"
       style="fill:none;stroke:#000000;stroke-width:1.13387;stroke-linecap:butt;stroke-linejoin:miter;stroke-miterlimit:4;stroke-dasharray:none;stroke-opacity:1"
       id="path29207" /></g></svg>